<?xml version="1.0" standalone="no"?>
<!DOCTYPE svg PUBLIC "-//W3C//DTD SVG 20010904//EN"
 "http://www.w3.org/TR/2001/REC-SVG-20010904/DTD/svg10.dtd">
<svg version="1.0" xmlns="http://www.w3.org/2000/svg"
 width="262.000000pt" height="262.000000pt" viewBox="0 0 262.000000 262.000000"
 preserveAspectRatio="xMidYMid meet">
<metadata>
Created by potrace 1.14, written by Peter Selinger 2001-2017
</metadata>
<g transform="translate(0.000000,262.000000) scale(0.100000,-0.100000)"
fill="#000000" stroke="none">
<path d="M925 2299 c-4 -6 -4 -13 -1 -16 3 -4 6 -1 6 6 0 7 5 9 12 5 7 -4 8
-3 4 4 -9 15 -13 15 -21 1z"/>
<path d="M935 2241 c-3 -5 0 -13 6 -17 7 -4 9 -3 5 4 -3 5 0 13 6 15 9 4 10 6
1 6 -6 1 -14 -3 -18 -8z"/>
<path d="M927 2209 c7 -7 15 -10 18 -7 3 3 -2 9 -12 12 -14 6 -15 5 -6 -5z"/>
<path d="M919 2183 c8 -16 8 -23 -2 -26 -9 -4 -9 -6 1 -6 8 -1 10 -6 5 -13
-18 -30 -13 -48 11 -46 14 1 22 6 19 11 -3 5 -12 6 -20 2 -13 -4 -14 -3 -3 10
10 12 16 13 29 3 13 -10 13 -8 -1 7 -16 17 -16 19 0 32 9 8 12 12 5 9 -6 -4
-22 4 -34 16 -21 23 -21 23 -10 1z"/>
<path d="M938 2085 c-3 -3 -71 -14 -90 -15 -4 0 -23 -14 -42 -31 -37 -32 -44
-52 -50 -149 -3 -51 -5 -55 -29 -57 -15 -1 -26 1 -26 5 3 21 -5 22 -38 2 -21
-12 -30 -15 -21 -7 10 8 14 18 10 22 -4 5 -2 5 5 1 6 -3 14 -3 17 2 2 4 -5 9
-16 9 -12 1 -25 8 -29 15 -5 7 -9 11 -10 8 0 -3 -2 -13 -4 -23 -3 -14 1 -17
13 -12 13 5 13 2 -3 -15 -10 -11 -14 -21 -9 -21 5 -1 24 -3 43 -5 19 -2 37 -7
40 -10 3 -4 -6 -4 -21 -2 -16 3 -28 1 -28 -3 0 -5 6 -9 14 -9 8 0 17 -6 19
-12 4 -10 6 -10 6 0 1 6 5 12 11 12 5 0 9 -3 9 -7 -1 -5 -1 -15 0 -23 1 -13 2
-13 11 0 7 11 10 11 10 2 0 -7 4 -11 8 -8 4 3 7 -10 5 -27 -1 -18 -3 -52 -4
-75 -1 -24 -9 -51 -17 -59 -13 -13 -13 -16 -1 -25 10 -7 8 -8 -8 -3 -31 9
-134 -60 -125 -83 5 -15 4 -16 -13 -2 -15 12 -17 12 -10 1 6 -11 4 -13 -7 -8
-20 7 -38 -11 -30 -32 5 -13 3 -14 -9 -4 -11 9 -18 8 -33 -3 -14 -10 -16 -14
-5 -14 8 -1 3 -7 -11 -14 -14 -8 -28 -12 -31 -10 -4 2 -13 -4 -20 -13 -10 -12
-10 -14 -1 -9 7 4 12 2 12 -5 0 -7 6 -5 13 6 9 11 19 15 27 10 9 -6 11 -4 5 5
-6 10 -4 12 9 7 9 -4 15 -3 12 2 -3 5 2 15 11 22 15 12 16 12 10 -6 -7 -18 -6
-19 6 -3 8 10 17 15 20 11 4 -3 7 -1 7 5 0 7 7 12 16 12 10 0 14 6 11 14 -4
10 -1 13 8 9 8 -3 13 -8 10 -12 -2 -4 2 -8 9 -8 8 0 12 6 9 14 -3 7 2 14 11
14 9 1 21 3 26 4 6 1 15 3 20 4 6 0 10 6 10 12 0 8 -4 9 -13 0 -8 -6 -16 -8
-20 -5 -3 3 -16 0 -29 -6 -19 -10 -21 -10 -11 0 7 7 21 14 32 15 11 1 27 8 37
16 10 8 15 9 11 2 -4 -6 -3 -14 3 -18 5 -3 10 -1 10 4 0 6 7 11 15 11 13 0 14
-10 10 -57 -5 -56 -8 -93 -20 -293 -4 -52 -8 -106 -10 -120 -2 -14 -7 -79 -10
-145 -4 -66 -9 -131 -10 -145 -2 -14 -4 -33 -4 -42 -1 -12 -9 -18 -24 -18 -50
0 -61 -34 -72 -215 -3 -44 -7 -93 -10 -110 -2 -16 -7 -75 -11 -130 -4 -55 -8
-109 -9 -120 -1 -11 -3 -27 -4 -36 -1 -11 -11 -15 -41 -13 -45 2 -65 -15 -55
-46 6 -20 8 -20 915 -20 866 0 910 1 919 18 15 28 -3 45 -49 48 -23 1 -43 4
-45 6 -1 2 -6 46 -10 98 -4 52 -9 111 -10 130 -2 19 -6 80 -10 135 -5 55 -9
107 -11 115 -1 8 -3 34 -3 57 -1 45 -29 83 -62 83 -23 0 -27 15 -34 130 -3 52
-8 115 -10 140 -2 25 -7 90 -10 145 -4 55 -8 120 -10 145 -2 25 -6 86 -10 135
-3 50 -8 117 -10 150 -3 33 -7 92 -10 130 -5 83 -14 199 -21 273 -5 59 -22 92
-62 119 -25 16 -62 18 -477 19 -247 1 -450 3 -450 4 0 3 -34 8 -37 5z m-193
-273 c-3 -3 -11 0 -18 7 -9 10 -8 11 6 5 10 -3 15 -9 12 -12z m-59 -274 c4 -7
4 -10 -1 -6 -4 4 -13 0 -20 -9 -9 -13 -14 -13 -20 -3 -5 8 -4 11 2 7 6 -4 13
0 17 8 7 18 13 19 22 3z m-127 -89 c-15 -9 -32 -2 -24 11 3 5 13 6 21 3 12 -4
13 -8 3 -14z"/>
<path d="M373 1995 c0 -8 4 -12 9 -9 5 3 6 10 3 15 -9 13 -12 11 -12 -6z"/>
<path d="M442 1958 c7 -15 15 -23 17 -17 2 6 -4 18 -13 27 -15 15 -15 15 -4
-10z"/>
<path d="M410 1960 c0 -5 5 -10 11 -10 5 0 7 5 4 10 -3 6 -8 10 -11 10 -2 0
-4 -4 -4 -10z"/>
<path d="M490 1944 c0 -6 11 -23 24 -37 13 -14 21 -29 17 -33 -3 -4 -1 -4 5
-1 6 4 22 -2 34 -13 31 -27 37 -25 35 8 -1 16 -7 26 -15 24 -8 -2 -10 3 -6 15
5 16 4 15 -9 -1 -14 -19 -21 -11 -16 17 1 5 -3 6 -9 2 -7 -4 -7 -12 0 -26 6
-10 8 -19 6 -19 -3 0 -14 17 -25 38 -11 20 -20 30 -21 22 0 -13 -1 -13 -10 0
-5 8 -10 10 -10 4z m103 -71 c-3 -7 -9 -10 -14 -7 -14 8 -11 21 5 21 8 0 12
-6 9 -14z"/>
<path d="M470 1931 c0 -6 4 -13 10 -16 6 -3 7 1 4 9 -7 18 -14 21 -14 7z"/>
<path d="M335 1320 c-3 -5 -1 -10 4 -10 6 0 11 5 11 10 0 6 -2 10 -4 10 -3 0
-8 -4 -11 -10z"/>
</g>
</svg>
